<mxfile host="app.diagrams.net" modified="2024-05-16T09:48:21.525Z" agent="Mozilla/5.0 (Macintosh; Intel Mac OS X 10.15; rv:126.0) Gecko/20100101 Firefox/126.0" etag="anPQuPjwXaay4Mwrhwaw" version="24.4.0" type="github" pages="3">
  <diagram id="l7Ng9qnX4u8ULg11-bzS" name="techs">
    <mxGraphModel dx="4554" dy="1094" grid="1" gridSize="10" guides="1" tooltips="1" connect="1" arrows="1" fold="1" page="0" pageScale="1" pageWidth="827" pageHeight="1169" math="0" shadow="0">
      <root>
        <mxCell id="0" />
        <mxCell id="1" parent="0" />
        <mxCell id="LN6l2RjsA6CnxFqQs6TT-1" value="" style="rounded=1;whiteSpace=wrap;html=1;arcSize=2;fillColor=#FCFCFC;strokeColor=none;" parent="1" vertex="1">
          <mxGeometry x="-1417" y="150" width="797" height="570" as="geometry" />
        </mxCell>
        <mxCell id="nVuRSVYo_JDJh6PSWOgL-43" value="" style="rounded=1;whiteSpace=wrap;html=1;strokeWidth=2;strokeColor=#4496f4;fillColor=default;" parent="1" vertex="1">
          <mxGeometry x="-820" y="287.55" width="170" height="152.45" as="geometry" />
        </mxCell>
        <mxCell id="nVuRSVYo_JDJh6PSWOgL-17" value="" style="sketch=0;aspect=fixed;html=1;points=[];align=center;image;fontSize=12;image=https://opennebula.io/wp-content/uploads/2020/05/DockerHub.png;fillColor=#CCE5FF;clipPath=inset(11.33% 4% 10% 2.33%);" parent="1" vertex="1">
          <mxGeometry x="-817.59" y="304" width="165.18" height="34.68192170818506" as="geometry" />
        </mxCell>
        <mxCell id="nVuRSVYo_JDJh6PSWOgL-23" value="&lt;div style=&quot;text-align: left;&quot;&gt;&lt;span style=&quot;background-color: initial;&quot;&gt;&lt;b&gt;&lt;font color=&quot;#4496f4&quot;&gt;Registries&lt;/font&gt;&lt;/b&gt;&lt;/span&gt;&lt;/div&gt;&lt;div style=&quot;text-align: left;&quot;&gt;&lt;font color=&quot;#4496f4&quot;&gt;&lt;span style=&quot;background-color: initial;&quot;&gt;•&lt;/span&gt;&lt;span style=&quot;background-color: initial;&quot;&gt;&amp;nbsp;production&lt;/span&gt;&lt;/font&gt;&lt;/div&gt;&lt;font color=&quot;#4496f4&quot;&gt;&lt;span style=&quot;&quot;&gt;&lt;div style=&quot;text-align: left;&quot;&gt;&lt;span style=&quot;background-color: initial;&quot;&gt;•&amp;nbsp;&lt;/span&gt;&lt;span style=&quot;background-color: initial;&quot;&gt;pre-production&lt;/span&gt;&lt;/div&gt;&lt;/span&gt;&lt;span style=&quot;&quot;&gt;&lt;div style=&quot;text-align: left;&quot;&gt;&lt;span style=&quot;background-color: initial;&quot;&gt;•&amp;nbsp;&lt;/span&gt;&lt;span style=&quot;background-color: initial;&quot;&gt;control&lt;/span&gt;&lt;/div&gt;&lt;/span&gt;&lt;/font&gt;&lt;div style=&quot;text-align: left;&quot;&gt;&lt;font color=&quot;#4496f4&quot;&gt;•&amp;nbsp;&lt;span style=&quot;background-color: initial;&quot;&gt;development&lt;/span&gt;&lt;/font&gt;&lt;/div&gt;" style="text;html=1;align=center;verticalAlign=middle;resizable=0;points=[];autosize=1;strokeColor=none;fillColor=none;" parent="1" vertex="1">
          <mxGeometry x="-782.5" y="353.55" width="95" height="74" as="geometry" />
        </mxCell>
        <mxCell id="nVuRSVYo_JDJh6PSWOgL-57" value="" style="rounded=1;whiteSpace=wrap;html=1;strokeWidth=2;strokeColor=#0279d7;fillColor=default;" parent="1" vertex="1">
          <mxGeometry x="-1010" y="460" width="250" height="140" as="geometry" />
        </mxCell>
        <mxCell id="nVuRSVYo_JDJh6PSWOgL-35" value="&lt;div style=&quot;text-align: left;&quot;&gt;&lt;b style=&quot;&quot;&gt;Supported systems&lt;/b&gt;&lt;/div&gt;&lt;div style=&quot;text-align: left;&quot;&gt;&lt;span style=&quot;background-color: initial;&quot;&gt;•&lt;/span&gt;&lt;span style=&quot;background-color: initial;&quot;&gt;&amp;nbsp;Linux / macOS / Windows&lt;/span&gt;&lt;/div&gt;&lt;div style=&quot;text-align: left;&quot;&gt;&lt;span style=&quot;background-color: initial;&quot;&gt;•&lt;/span&gt;&lt;span style=&quot;background-color: initial;&quot;&gt;&amp;nbsp;AMD64 (x86_64), ARM64 (aarch64)&lt;/span&gt;&lt;font color=&quot;#4d4d4d&quot;&gt;&lt;span style=&quot;background-color: initial;&quot;&gt;&lt;br&gt;&lt;/span&gt;&lt;/font&gt;&lt;/div&gt;" style="text;html=1;align=center;verticalAlign=middle;resizable=0;points=[];autosize=1;strokeColor=none;fillColor=none;" parent="1" vertex="1">
          <mxGeometry x="-990" y="540" width="210" height="50" as="geometry" />
        </mxCell>
        <mxCell id="nVuRSVYo_JDJh6PSWOgL-32" value="" style="shape=image;verticalLabelPosition=bottom;labelBackgroundColor=default;verticalAlign=top;aspect=fixed;imageAspect=0;image=https://www.redhat.com/cms/managed-files/tux-327x360.png;" parent="1" vertex="1">
          <mxGeometry x="-980" y="472" width="43.38" height="53.75" as="geometry" />
        </mxCell>
        <mxCell id="nVuRSVYo_JDJh6PSWOgL-36" value="" style="shape=image;verticalLabelPosition=bottom;labelBackgroundColor=default;verticalAlign=top;aspect=fixed;imageAspect=0;image=https://upload.wikimedia.org/wikipedia/commons/thumb/4/48/Windows_logo_-_2012_%28dark_blue%29.svg/2048px-Windows_logo_-_2012_%28dark_blue%29.svg.png;" parent="1" vertex="1">
          <mxGeometry x="-832" y="472" width="52" height="52" as="geometry" />
        </mxCell>
        <mxCell id="nVuRSVYo_JDJh6PSWOgL-37" value="" style="shape=image;verticalLabelPosition=bottom;labelBackgroundColor=default;verticalAlign=top;aspect=fixed;imageAspect=0;image=https://upload.wikimedia.org/wikipedia/commons/thumb/2/22/MacOS_logo_%282017%29.svg/2060px-MacOS_logo_%282017%29.svg.png;" parent="1" vertex="1">
          <mxGeometry x="-917.24" y="466.01" width="64.49" height="64" as="geometry" />
        </mxCell>
        <mxCell id="nVuRSVYo_JDJh6PSWOgL-52" value="" style="rounded=1;whiteSpace=wrap;html=1;strokeWidth=2;strokeColor=#FFD847;fillColor=default;" parent="1" vertex="1">
          <mxGeometry x="-1389.31" y="300.35" width="170" height="160" as="geometry" />
        </mxCell>
        <mxCell id="nVuRSVYo_JDJh6PSWOgL-53" value="" style="group" parent="1" vertex="1" connectable="0">
          <mxGeometry x="-1407.31" y="314.5" width="180.55" height="135.85" as="geometry" />
        </mxCell>
        <mxCell id="nVuRSVYo_JDJh6PSWOgL-28" value="" style="shape=image;verticalLabelPosition=bottom;labelBackgroundColor=default;verticalAlign=top;aspect=fixed;imageAspect=0;image=https://logo-marque.com/wp-content/uploads/2021/10/Python-Symbole.jpg;clipPath=inset(0.3% 20.67% 1.48% 25.33%);" parent="nVuRSVYo_JDJh6PSWOgL-53" vertex="1">
          <mxGeometry x="27.31" width="73.19277108433735" height="75" as="geometry" />
        </mxCell>
        <mxCell id="nVuRSVYo_JDJh6PSWOgL-29" value="&lt;div style=&quot;text-align: left;&quot;&gt;&lt;b style=&quot;&quot;&gt;&lt;font color=&quot;#4d4d4d&quot;&gt;Entrypoint&lt;/font&gt;&lt;/b&gt;&lt;/div&gt;&lt;div style=&quot;text-align: left;&quot;&gt;&lt;font color=&quot;#4d4d4d&quot;&gt;&lt;span style=&quot;background-color: initial;&quot;&gt;•&lt;/span&gt;&lt;span style=&quot;background-color: initial;&quot;&gt;&amp;nbsp;Packaged&lt;/span&gt;&lt;/font&gt;&lt;/div&gt;&lt;div style=&quot;text-align: left;&quot;&gt;&lt;font color=&quot;#4d4d4d&quot;&gt;&lt;span style=&quot;background-color: initial;&quot;&gt;• Open-s&lt;/span&gt;&lt;span style=&quot;background-color: initial;&quot;&gt;ource&lt;/span&gt;&lt;/font&gt;&lt;/div&gt;" style="text;html=1;align=center;verticalAlign=middle;resizable=0;points=[];autosize=1;strokeColor=none;fillColor=none;" parent="nVuRSVYo_JDJh6PSWOgL-53" vertex="1">
          <mxGeometry x="54.559999999999945" y="85.85" width="90" height="50" as="geometry" />
        </mxCell>
        <mxCell id="nVuRSVYo_JDJh6PSWOgL-30" value="" style="shape=image;verticalLabelPosition=bottom;labelBackgroundColor=default;verticalAlign=top;aspect=fixed;imageAspect=0;image=https://miro.medium.com/max/660/1*2FrV8q6rPdz6w2ShV6y7bw.png;" parent="nVuRSVYo_JDJh6PSWOgL-53" vertex="1">
          <mxGeometry x="110" y="4.420000000000016" width="70.55" height="62" as="geometry" />
        </mxCell>
        <mxCell id="nVuRSVYo_JDJh6PSWOgL-42" value="" style="rounded=1;whiteSpace=wrap;html=1;strokeWidth=2;strokeColor=#000000;" parent="1" vertex="1">
          <mxGeometry x="-1010" y="230" width="170" height="210" as="geometry" />
        </mxCell>
        <mxCell id="nVuRSVYo_JDJh6PSWOgL-18" value="" style="shape=image;verticalLabelPosition=bottom;labelBackgroundColor=default;verticalAlign=top;aspect=fixed;imageAspect=0;image=https://logos-marques.com/wp-content/uploads/2021/03/GitHub-Logo.png;" parent="1" vertex="1">
          <mxGeometry x="-995" y="240.00000000000003" width="140" height="79.15" as="geometry" />
        </mxCell>
        <mxCell id="nVuRSVYo_JDJh6PSWOgL-21" value="&lt;div style=&quot;text-align: left;&quot;&gt;&lt;span style=&quot;background-color: initial;&quot;&gt;&lt;b&gt;Repos&lt;/b&gt;&lt;/span&gt;&lt;/div&gt;&lt;div style=&quot;text-align: left;&quot;&gt;&lt;span style=&quot;background-color: initial;&quot;&gt;•&lt;/span&gt;&lt;span style=&quot;background-color: initial;&quot;&gt;&amp;nbsp;wrapper&lt;/span&gt;&lt;/div&gt;&lt;span style=&quot;&quot;&gt;&lt;div style=&quot;text-align: left;&quot;&gt;&lt;span style=&quot;background-color: initial;&quot;&gt;•&amp;nbsp;&lt;/span&gt;&lt;span style=&quot;background-color: initial;&quot;&gt;images&lt;/span&gt;&lt;/div&gt;&lt;/span&gt;&lt;span style=&quot;&quot;&gt;&lt;div style=&quot;text-align: left;&quot;&gt;&lt;span style=&quot;background-color: initial;&quot;&gt;•&amp;nbsp;&lt;/span&gt;&lt;span style=&quot;background-color: initial;&quot;&gt;resources&lt;/span&gt;&lt;/div&gt;&lt;/span&gt;&lt;div style=&quot;text-align: left;&quot;&gt;•&amp;nbsp;&lt;span style=&quot;background-color: initial;&quot;&gt;docs&lt;/span&gt;&lt;/div&gt;&lt;span style=&quot;&quot;&gt;&lt;div style=&quot;text-align: left;&quot;&gt;&lt;span style=&quot;background-color: initial;&quot;&gt;•&amp;nbsp;&lt;/span&gt;&lt;span style=&quot;background-color: initial;&quot;&gt;history&lt;/span&gt;&lt;/div&gt;&lt;/span&gt;" style="text;html=1;align=center;verticalAlign=middle;resizable=0;points=[];autosize=1;strokeColor=none;fillColor=none;" parent="1" vertex="1">
          <mxGeometry x="-997.5" y="329" width="80" height="90" as="geometry" />
        </mxCell>
        <mxCell id="nVuRSVYo_JDJh6PSWOgL-22" value="&lt;div style=&quot;text-align: left;&quot;&gt;&lt;span style=&quot;background-color: initial;&quot;&gt;&lt;b&gt;Pipelines&lt;/b&gt;&lt;/span&gt;&lt;/div&gt;&lt;div style=&quot;text-align: left;&quot;&gt;&lt;span style=&quot;background-color: initial;&quot;&gt;•&lt;/span&gt;&lt;span style=&quot;background-color: initial;&quot;&gt;&amp;nbsp;build&lt;/span&gt;&lt;/div&gt;&lt;span style=&quot;&quot;&gt;&lt;div style=&quot;text-align: left;&quot;&gt;&lt;span style=&quot;background-color: initial;&quot;&gt;• control&lt;/span&gt;&lt;/div&gt;&lt;/span&gt;&lt;span style=&quot;&quot;&gt;&lt;div style=&quot;text-align: left;&quot;&gt;&lt;span style=&quot;background-color: initial;&quot;&gt;•&amp;nbsp;&lt;/span&gt;&lt;span style=&quot;background-color: initial;&quot;&gt;versioning&lt;/span&gt;&lt;/div&gt;&lt;/span&gt;" style="text;html=1;align=center;verticalAlign=middle;resizable=0;points=[];autosize=1;strokeColor=none;fillColor=none;" parent="1" vertex="1">
          <mxGeometry x="-932.5" y="330" width="80" height="60" as="geometry" />
        </mxCell>
        <mxCell id="nVuRSVYo_JDJh6PSWOgL-41" value="" style="rounded=1;whiteSpace=wrap;html=1;strokeWidth=2;strokeColor=#2597ED;" parent="1" vertex="1">
          <mxGeometry x="-1200" y="170" width="170" height="210" as="geometry" />
        </mxCell>
        <mxCell id="nVuRSVYo_JDJh6PSWOgL-25" value="" style="shape=image;verticalLabelPosition=bottom;labelBackgroundColor=default;verticalAlign=top;aspect=fixed;imageAspect=0;image=https://www.docker.com/wp-content/uploads/2022/03/vertical-logo-monochromatic.png;" parent="1" vertex="1">
          <mxGeometry x="-1158.63" y="180" width="88.63" height="75.85" as="geometry" />
        </mxCell>
        <mxCell id="nVuRSVYo_JDJh6PSWOgL-27" value="&lt;div style=&quot;&quot;&gt;&lt;span style=&quot;background-color: initial;&quot;&gt;&lt;b&gt;&lt;font color=&quot;#2597ed&quot;&gt;Dedicated images&lt;/font&gt;&lt;/b&gt;&lt;/span&gt;&lt;/div&gt;&lt;div style=&quot;&quot;&gt;&lt;font color=&quot;#2597ed&quot;&gt;&lt;span style=&quot;background-color: initial;&quot;&gt;•&lt;/span&gt;&lt;span style=&quot;background-color: initial;&quot;&gt;&amp;nbsp;(dev) all&lt;/span&gt;&lt;/font&gt;&lt;/div&gt;&lt;div style=&quot;&quot;&gt;&lt;span style=&quot;color: rgb(37, 151, 237); background-color: initial;&quot;&gt;•&lt;/span&gt;&lt;span style=&quot;color: rgb(37, 151, 237); background-color: initial;&quot;&gt;&amp;nbsp;(prod) all&lt;/span&gt;&lt;br&gt;&lt;/div&gt;&lt;font color=&quot;#2597ed&quot;&gt;&lt;span style=&quot;&quot;&gt;&lt;div style=&quot;&quot;&gt;&lt;span style=&quot;background-color: initial;&quot;&gt;• (prod)&amp;nbsp;&lt;/span&gt;&lt;span style=&quot;background-color: initial;&quot;&gt;ad&lt;/span&gt;&lt;/div&gt;&lt;div style=&quot;&quot;&gt;&lt;span style=&quot;background-color: initial;&quot;&gt;• (prod) light&lt;/span&gt;&lt;br&gt;&lt;/div&gt;&lt;div style=&quot;&quot;&gt;&lt;span style=&quot;background-color: initial;&quot;&gt;• (prod) web&lt;/span&gt;&lt;span style=&quot;background-color: initial;&quot;&gt;&lt;br&gt;&lt;/span&gt;&lt;/div&gt;&lt;/span&gt;&lt;/font&gt;&lt;span style=&quot;color: rgb(37, 151, 237);&quot;&gt;•&amp;nbsp;&lt;/span&gt;&lt;span style=&quot;color: rgb(37, 151, 237); background-color: initial;&quot;&gt;(...)&lt;/span&gt;&lt;span style=&quot;color: rgb(37, 151, 237);&quot;&gt;&lt;br&gt;&lt;/span&gt;" style="text;html=1;align=left;verticalAlign=middle;resizable=0;points=[];autosize=1;strokeColor=none;fillColor=none;" parent="1" vertex="1">
          <mxGeometry x="-1170" y="270.35" width="120" height="100" as="geometry" />
        </mxCell>
        <mxCell id="nVuRSVYo_JDJh6PSWOgL-48" value="" style="rounded=1;whiteSpace=wrap;html=1;strokeWidth=2;strokeColor=#5566F5;fillColor=default;" parent="1" vertex="1">
          <mxGeometry x="-1200" y="400" width="170" height="140" as="geometry" />
        </mxCell>
        <mxCell id="nVuRSVYo_JDJh6PSWOgL-26" value="&lt;div style=&quot;text-align: left;&quot;&gt;&lt;span style=&quot;background-color: initial;&quot;&gt;&lt;b&gt;&lt;font color=&quot;#5566f5&quot;&gt;Documentation&lt;/font&gt;&lt;/b&gt;&lt;/span&gt;&lt;/div&gt;&lt;div style=&quot;text-align: left;&quot;&gt;&lt;font color=&quot;#5566f5&quot;&gt;&lt;span style=&quot;background-color: initial;&quot;&gt;•&lt;/span&gt;&lt;span style=&quot;background-color: initial;&quot;&gt;&amp;nbsp;Tickets &amp;amp; support&lt;/span&gt;&lt;/font&gt;&lt;/div&gt;&lt;div style=&quot;text-align: left;&quot;&gt;&lt;font color=&quot;#5566f5&quot;&gt;&lt;span style=&quot;background-color: initial;&quot;&gt;•&amp;nbsp;&lt;/span&gt;&lt;span style=&quot;background-color: initial;&quot;&gt;Community&lt;/span&gt;&lt;/font&gt;&lt;/div&gt;&lt;div style=&quot;text-align: left;&quot;&gt;&lt;font color=&quot;#5566f5&quot;&gt;&lt;span style=&quot;background-color: initial;&quot;&gt;•&amp;nbsp;&lt;/span&gt;&lt;span style=&quot;background-color: initial;&quot;&gt;Announcements&lt;/span&gt;&lt;/font&gt;&lt;/div&gt;" style="text;html=1;align=center;verticalAlign=middle;resizable=0;points=[];autosize=1;strokeColor=none;fillColor=none;" parent="1" vertex="1">
          <mxGeometry x="-1175" y="460" width="120" height="60" as="geometry" />
        </mxCell>
        <mxCell id="nVuRSVYo_JDJh6PSWOgL-56" value="" style="rounded=1;whiteSpace=wrap;html=1;strokeWidth=2;strokeColor=#32322A;fillColor=default;" parent="1" vertex="1">
          <mxGeometry x="-1200" y="560" width="170" height="140" as="geometry" />
        </mxCell>
        <mxCell id="nVuRSVYo_JDJh6PSWOgL-24" value="&lt;div style=&quot;text-align: left;&quot;&gt;&lt;span style=&quot;background-color: initial;&quot;&gt;&lt;b&gt;&lt;font color=&quot;#32322a&quot;&gt;Documentation&lt;/font&gt;&lt;/b&gt;&lt;/span&gt;&lt;/div&gt;&lt;div style=&quot;text-align: left;&quot;&gt;&lt;font color=&quot;#32322a&quot;&gt;&lt;span style=&quot;background-color: initial;&quot;&gt;•&lt;/span&gt;&lt;span style=&quot;background-color: initial;&quot;&gt;&amp;nbsp;Users&lt;/span&gt;&lt;/font&gt;&lt;/div&gt;&lt;div style=&quot;text-align: left;&quot;&gt;&lt;font color=&quot;#32322a&quot;&gt;&lt;span style=&quot;background-color: initial;&quot;&gt;•&amp;nbsp;&lt;/span&gt;&lt;span style=&quot;background-color: initial;&quot;&gt;Contributors&lt;/span&gt;&lt;/font&gt;&lt;/div&gt;&lt;div style=&quot;text-align: left;&quot;&gt;&lt;font color=&quot;#32322a&quot;&gt;&lt;span style=&quot;background-color: initial;&quot;&gt;•&amp;nbsp;&lt;/span&gt;&lt;span style=&quot;background-color: initial;&quot;&gt;Maintainers &amp;amp; devs&lt;/span&gt;&lt;/font&gt;&lt;/div&gt;" style="text;html=1;align=center;verticalAlign=middle;resizable=0;points=[];autosize=1;strokeColor=none;fillColor=none;" parent="1" vertex="1">
          <mxGeometry x="-1177.5" y="620" width="130" height="60" as="geometry" />
        </mxCell>
        <mxCell id="6eGMG3VIlo7N3lYu_ds0-1" value="" style="shape=image;verticalLabelPosition=bottom;labelBackgroundColor=default;verticalAlign=top;aspect=fixed;imageAspect=0;image=https://upload.wikimedia.org/wikipedia/fr/thumb/9/98/Discord_logo.svg/2560px-Discord_logo.svg.png;" parent="1" vertex="1">
          <mxGeometry x="-1191.89" y="408.36" width="153.77" height="41.99" as="geometry" />
        </mxCell>
        <mxCell id="6eGMG3VIlo7N3lYu_ds0-3" value="" style="shape=image;verticalLabelPosition=bottom;labelBackgroundColor=default;verticalAlign=top;aspect=fixed;imageAspect=0;image=https://read-the-docs-guidelines.readthedocs-hosted.com/_downloads/d9606423d87d78fcceae4ee2af883b12/logo-wordmark-dark.png;" parent="1" vertex="1">
          <mxGeometry x="-1190" y="570" width="150" height="30" as="geometry" />
        </mxCell>
      </root>
    </mxGraphModel>
  </diagram>
  <diagram id="ISIRCiZMFaJ1pwydT3CF" name="structure">
    <mxGraphModel dx="3781" dy="1094" grid="1" gridSize="10" guides="1" tooltips="1" connect="1" arrows="1" fold="1" page="1" pageScale="1" pageWidth="827" pageHeight="1169" math="0" shadow="0">
      <root>
        <mxCell id="0" />
        <mxCell id="1" parent="0" />
        <mxCell id="5lNefhlUF8C-h1q1QHB9-1" value="" style="rounded=1;whiteSpace=wrap;html=1;arcSize=2;fillColor=#FCFCFC;strokeColor=none;" parent="1" vertex="1">
          <mxGeometry x="-530" y="170" width="1220" height="680" as="geometry" />
        </mxCell>
        <mxCell id="dK9k6cnuPx4-5G9yGXYG-63" value="" style="rounded=1;whiteSpace=wrap;html=1;arcSize=3;dashed=1;strokeWidth=2;fillColor=none;strokeColor=#049cec;" parent="1" vertex="1">
          <mxGeometry x="-100" y="220" width="750" height="595" as="geometry" />
        </mxCell>
        <mxCell id="vDoirplq6uPTEXAAhUeB-1" value="" style="shape=image;verticalLabelPosition=bottom;labelBackgroundColor=default;verticalAlign=top;aspect=fixed;imageAspect=0;image=https://www.docker.com/wp-content/uploads/2022/03/vertical-logo-monochromatic.png;" parent="1" vertex="1">
          <mxGeometry x="555" y="230" width="82.58" height="70.68" as="geometry" />
        </mxCell>
        <mxCell id="dK9k6cnuPx4-5G9yGXYG-64" style="edgeStyle=orthogonalEdgeStyle;curved=1;rounded=0;orthogonalLoop=1;jettySize=auto;html=1;entryX=0;entryY=0.5;entryDx=0;entryDy=0;exitX=1;exitY=0.5;exitDx=0;exitDy=0;fontColor=#333333;strokeColor=#333333;strokeWidth=3;" parent="1" source="dK9k6cnuPx4-5G9yGXYG-67" target="dK9k6cnuPx4-5G9yGXYG-63" edge="1">
          <mxGeometry relative="1" as="geometry">
            <mxPoint x="-195.66499999999996" y="431.25" as="sourcePoint" />
          </mxGeometry>
        </mxCell>
        <mxCell id="dK9k6cnuPx4-5G9yGXYG-11" value="Container &quot;HTB&quot;" style="swimlane;fillColor=#82B366;strokeColor=#82b366;fontColor=#FFFFFF;strokeWidth=2;fontSize=14;" parent="1" vertex="1">
          <mxGeometry x="-70" y="590" width="167.5" height="120" as="geometry" />
        </mxCell>
        <mxCell id="dK9k6cnuPx4-5G9yGXYG-15" value="Graphical support&lt;br&gt;&lt;br&gt;&lt;b&gt;Dedicated network w/ VPN&lt;br&gt;&lt;/b&gt;&lt;br&gt;Dedicated workspace" style="text;html=1;align=center;verticalAlign=middle;resizable=0;points=[];autosize=1;strokeColor=none;fillColor=none;fontColor=#666666;" parent="dK9k6cnuPx4-5G9yGXYG-11" vertex="1">
          <mxGeometry x="-2.5" y="30" width="170" height="80" as="geometry" />
        </mxCell>
        <mxCell id="dK9k6cnuPx4-5G9yGXYG-13" value="Container &quot;Client ABC&quot;" style="swimlane;fillColor=#D79B00;strokeColor=#d79b00;fontColor=#FFFFFF;strokeWidth=2;fontSize=14;" parent="1" vertex="1">
          <mxGeometry x="172.5" y="595" width="165" height="180" as="geometry" />
        </mxCell>
        <mxCell id="dK9k6cnuPx4-5G9yGXYG-19" value="&lt;b&gt;Host network&lt;br&gt;&lt;/b&gt;&lt;br&gt;&lt;b&gt;Shell logging&lt;br&gt;&lt;/b&gt;&lt;br&gt;Graphical support&lt;br&gt;&lt;br&gt;Custom workspace&lt;br&gt;&lt;br&gt;Exegol resources" style="text;html=1;align=center;verticalAlign=middle;resizable=0;points=[];autosize=1;strokeColor=none;fillColor=none;fontColor=#666666;" parent="dK9k6cnuPx4-5G9yGXYG-13" vertex="1">
          <mxGeometry x="22.5" y="35" width="120" height="130" as="geometry" />
        </mxCell>
        <mxCell id="dK9k6cnuPx4-5G9yGXYG-14" value="Container &quot;Client XYZ&quot;" style="swimlane;fillColor=#B85450;strokeColor=#b85450;fontColor=#FFFFFF;strokeWidth=2;fontSize=14;" parent="1" vertex="1">
          <mxGeometry x="430" y="585" width="165" height="200" as="geometry">
            <mxRectangle x="430" y="585" width="160" height="23" as="alternateBounds" />
          </mxGeometry>
        </mxCell>
        <mxCell id="dK9k6cnuPx4-5G9yGXYG-22" value="Host network w/ VPN&lt;br&gt;&lt;br&gt;Shell logging&lt;br&gt;&lt;br&gt;Graphical support&lt;br&gt;&lt;br&gt;&lt;b&gt;Device sharing&lt;br&gt;&lt;br&gt;Custom workspace&lt;/b&gt;&lt;br&gt;&lt;br&gt;Custom configs &amp;amp; tools" style="text;html=1;align=center;verticalAlign=middle;resizable=0;points=[];autosize=1;strokeColor=none;fillColor=none;fontColor=#666666;" parent="dK9k6cnuPx4-5G9yGXYG-14" vertex="1">
          <mxGeometry x="12.5" y="30" width="140" height="160" as="geometry" />
        </mxCell>
        <mxCell id="dK9k6cnuPx4-5G9yGXYG-27" value="WEB" style="swimlane;fillColor=#6C8EBF;strokeColor=#6C8EBF;fontColor=#FFFFFF;strokeWidth=2;" parent="1" vertex="1">
          <mxGeometry y="330" width="120" height="200" as="geometry" />
        </mxCell>
        <mxCell id="dK9k6cnuPx4-5G9yGXYG-37" value="burp&lt;br&gt;ffuf&lt;br&gt;wordlists&lt;br&gt;gobuster&lt;br&gt;amass&lt;br&gt;wfuzz&lt;br&gt;sqlmap&lt;br&gt;ssrfmap&lt;br&gt;xsstrike&lt;br&gt;fuxploider&lt;br&gt;..." style="text;html=1;align=center;verticalAlign=middle;resizable=0;points=[];autosize=1;strokeColor=none;fillColor=none;fontColor=#6C8EBF;fontStyle=2" parent="dK9k6cnuPx4-5G9yGXYG-27" vertex="1">
          <mxGeometry x="25" y="35" width="70" height="160" as="geometry" />
        </mxCell>
        <mxCell id="dK9k6cnuPx4-5G9yGXYG-32" value="OSINT" style="swimlane;fillColor=#6C8EBF;strokeColor=#6C8EBF;fontColor=#FFFFFF;strokeWidth=2;" parent="1" vertex="1">
          <mxGeometry x="130" y="330" width="120" height="200" as="geometry" />
        </mxCell>
        <mxCell id="dK9k6cnuPx4-5G9yGXYG-38" value="maltego&lt;br&gt;holehe&lt;br&gt;maigret&lt;br&gt;h8mail&lt;br&gt;ghunt&lt;br&gt;phoneinfoga&lt;br&gt;infoga&lt;br&gt;toutatis&lt;br&gt;carbon14&lt;br&gt;spiderfoot&lt;br&gt;..." style="text;html=1;align=center;verticalAlign=middle;resizable=0;points=[];autosize=1;strokeColor=none;fillColor=none;fontColor=#6C8EBF;fontStyle=2" parent="dK9k6cnuPx4-5G9yGXYG-32" vertex="1">
          <mxGeometry x="19.310000000000002" y="35" width="80" height="160" as="geometry" />
        </mxCell>
        <mxCell id="dK9k6cnuPx4-5G9yGXYG-33" value="AD" style="swimlane;fillColor=#6C8EBF;strokeColor=#6C8EBF;fontColor=#FFFFFF;strokeWidth=2;" parent="1" vertex="1">
          <mxGeometry x="260" y="330" width="120" height="200" as="geometry" />
        </mxCell>
        <mxCell id="dK9k6cnuPx4-5G9yGXYG-39" value="Impacket&lt;br&gt;CrackMapExec&lt;br&gt;BloodHound&lt;br&gt;lsassy&lt;br&gt;evil-winrm&lt;br&gt;DonPAPI&lt;br&gt;enum4linux-ng&lt;br&gt;coercer&lt;br&gt;pywhisker&lt;br&gt;certipy&lt;br&gt;..." style="text;html=1;align=center;verticalAlign=middle;resizable=0;points=[];autosize=1;strokeColor=none;fillColor=none;fontColor=#6C8EBF;fontStyle=2" parent="dK9k6cnuPx4-5G9yGXYG-33" vertex="1">
          <mxGeometry x="10" y="35" width="100" height="160" as="geometry" />
        </mxCell>
        <mxCell id="dK9k6cnuPx4-5G9yGXYG-45" value="Exegol images" style="swimlane;fillColor=#B3C9FC;strokeColor=#B3C9FC;fontColor=#004C99;strokeWidth=2;fontSize=14;" parent="1" vertex="1">
          <mxGeometry x="-10" y="250" width="530" height="290" as="geometry" />
        </mxCell>
        <mxCell id="dK9k6cnuPx4-5G9yGXYG-46" value="pre-installed tools&lt;span style=&quot;white-space: pre; font-size: 13px;&quot;&gt;&#x9;&lt;/span&gt;&lt;span style=&quot;white-space: pre; font-size: 13px;&quot;&gt;&#x9;&lt;/span&gt;pre-configured&lt;span style=&quot;white-space: pre; font-size: 13px;&quot;&gt;&#x9;&lt;/span&gt;&lt;span style=&quot;white-space: pre; font-size: 13px;&quot;&gt;&#x9;&lt;/span&gt;&lt;span style=&quot;white-space: pre; font-size: 13px;&quot;&gt;&#x9;&lt;/span&gt;aliases&lt;br style=&quot;font-size: 13px;&quot;&gt;custom configurations&lt;span style=&quot;white-space: pre; font-size: 13px;&quot;&gt;&lt;span style=&quot;white-space: pre; font-size: 13px;&quot;&gt;&#x9;&lt;/span&gt;&lt;span style=&quot;white-space: pre; font-size: 13px;&quot;&gt;&#x9;&lt;/span&gt;&lt;/span&gt;pre-filled history&lt;span style=&quot;white-space: pre; font-size: 13px;&quot;&gt;&#x9;&lt;span style=&quot;white-space: pre; font-size: 13px;&quot;&gt;&#x9;&lt;/span&gt;&lt;/span&gt;powerful shell&lt;br style=&quot;font-size: 13px;&quot;&gt;..." style="text;html=1;align=center;verticalAlign=middle;resizable=0;points=[];autosize=1;strokeColor=none;fillColor=none;fontStyle=1;fontSize=13;fontColor=#6181BF;" parent="dK9k6cnuPx4-5G9yGXYG-45" vertex="1">
          <mxGeometry x="55" y="29" width="420" height="50" as="geometry" />
        </mxCell>
        <mxCell id="dK9k6cnuPx4-5G9yGXYG-47" value="LIGHT" style="swimlane;fillColor=#6C8EBF;strokeColor=#6C8EBF;fontColor=#FFFFFF;strokeWidth=2;" parent="1" vertex="1">
          <mxGeometry x="388.63" y="330" width="120" height="60" as="geometry" />
        </mxCell>
        <mxCell id="dK9k6cnuPx4-5G9yGXYG-48" value="lightweight choice" style="text;html=1;align=center;verticalAlign=middle;resizable=0;points=[];autosize=1;strokeColor=none;fillColor=none;fontStyle=2;fontColor=#6C8EBF;" parent="dK9k6cnuPx4-5G9yGXYG-47" vertex="1">
          <mxGeometry x="5" y="30" width="110" height="20" as="geometry" />
        </mxCell>
        <mxCell id="dK9k6cnuPx4-5G9yGXYG-55" value="FULL" style="swimlane;fillColor=#6C8EBF;strokeColor=#6C8EBF;fontColor=#FFFFFF;strokeWidth=2;" parent="1" vertex="1">
          <mxGeometry x="388.63" y="400" width="120" height="60" as="geometry" />
        </mxCell>
        <mxCell id="dK9k6cnuPx4-5G9yGXYG-56" value="all tools" style="text;html=1;align=center;verticalAlign=middle;resizable=0;points=[];autosize=1;strokeColor=none;fillColor=none;fontStyle=2;fontColor=#6C8EBF;" parent="dK9k6cnuPx4-5G9yGXYG-55" vertex="1">
          <mxGeometry x="30" y="30" width="60" height="20" as="geometry" />
        </mxCell>
        <mxCell id="dK9k6cnuPx4-5G9yGXYG-57" value="NIGHTLY" style="swimlane;fillColor=#6C8EBF;strokeColor=#6C8EBF;fontColor=#FFFFFF;strokeWidth=2;" parent="1" vertex="1">
          <mxGeometry x="388.63" y="470" width="120" height="60" as="geometry" />
        </mxCell>
        <mxCell id="dK9k6cnuPx4-5G9yGXYG-58" value="bleeding edge" style="text;html=1;align=center;verticalAlign=middle;resizable=0;points=[];autosize=1;strokeColor=none;fillColor=none;fontStyle=2;fontColor=#6C8EBF;" parent="dK9k6cnuPx4-5G9yGXYG-57" vertex="1">
          <mxGeometry x="15" y="30" width="90" height="20" as="geometry" />
        </mxCell>
        <mxCell id="dK9k6cnuPx4-5G9yGXYG-68" style="edgeStyle=orthogonalEdgeStyle;curved=1;rounded=0;orthogonalLoop=1;jettySize=auto;html=1;exitX=1;exitY=0.5;exitDx=0;exitDy=0;entryX=0;entryY=0.5;entryDx=0;entryDy=0;fontFamily=Courier New;fontSize=15;fontColor=#333333;strokeColor=#333333;strokeWidth=3;endArrow=none;endFill=0;" parent="1" source="dK9k6cnuPx4-5G9yGXYG-65" target="dK9k6cnuPx4-5G9yGXYG-67" edge="1">
          <mxGeometry relative="1" as="geometry" />
        </mxCell>
        <mxCell id="dK9k6cnuPx4-5G9yGXYG-65" value="exegol.py" style="rounded=1;whiteSpace=wrap;html=1;fontSize=17;fillColor=#333333;fontColor=#E6E6E6;fontStyle=1;fontFamily=Courier New;strokeColor=none;" parent="1" vertex="1">
          <mxGeometry x="-430.65999999999997" y="350" width="110" height="40" as="geometry" />
        </mxCell>
        <mxCell id="dK9k6cnuPx4-5G9yGXYG-67" value="install&lt;br style=&quot;font-size: 15px;&quot;&gt;start&lt;br style=&quot;font-size: 15px;&quot;&gt;info&lt;br style=&quot;font-size: 15px;&quot;&gt;..." style="rounded=1;whiteSpace=wrap;html=1;fontSize=15;fillColor=#333333;fontColor=#E6E6E6;fontStyle=1;fontFamily=Courier New;strokeColor=none;" parent="1" vertex="1">
          <mxGeometry x="-300" y="325" width="110" height="90" as="geometry" />
        </mxCell>
        <mxCell id="zVDJotKHEmB8gCbMWUN--8" value="" style="rounded=1;whiteSpace=wrap;html=1;dashed=1;fontFamily=Courier New;fontSize=15;strokeColor=none;strokeWidth=2;fillColor=#d5e8d4;arcSize=10;" parent="1" vertex="1">
          <mxGeometry x="-430.65999999999997" y="610" width="220" height="180" as="geometry" />
        </mxCell>
        <mxCell id="zVDJotKHEmB8gCbMWUN--1" value="" style="shape=image;verticalLabelPosition=bottom;labelBackgroundColor=default;verticalAlign=top;aspect=fixed;imageAspect=0;image=https://www.redhat.com/cms/managed-files/tux-327x360.png;" parent="1" vertex="1">
          <mxGeometry x="-408.65999999999997" y="619.3199999999999" width="43.38" height="53.75" as="geometry" />
        </mxCell>
        <mxCell id="zVDJotKHEmB8gCbMWUN--2" value="" style="shape=image;verticalLabelPosition=bottom;labelBackgroundColor=default;verticalAlign=top;aspect=fixed;imageAspect=0;image=https://upload.wikimedia.org/wikipedia/commons/thumb/4/48/Windows_logo_-_2012_%28dark_blue%29.svg/2048px-Windows_logo_-_2012_%28dark_blue%29.svg.png;" parent="1" vertex="1">
          <mxGeometry x="-269.65999999999997" y="622.2900000000001" width="47.81" height="47.81" as="geometry" />
        </mxCell>
        <mxCell id="zVDJotKHEmB8gCbMWUN--3" value="" style="shape=image;verticalLabelPosition=bottom;labelBackgroundColor=default;verticalAlign=top;aspect=fixed;imageAspect=0;image=https://upload.wikimedia.org/wikipedia/commons/thumb/2/22/MacOS_logo_%282017%29.svg/2060px-MacOS_logo_%282017%29.svg.png;" parent="1" vertex="1">
          <mxGeometry x="-352.90999999999997" y="614.19" width="64.49" height="64" as="geometry" />
        </mxCell>
        <mxCell id="zVDJotKHEmB8gCbMWUN--6" value="ARM64&lt;br&gt;(aarch64)" style="pointerEvents=1;shadow=0;dashed=0;html=1;strokeColor=none;fillColor=#4D4D4D;labelPosition=center;verticalLabelPosition=bottom;verticalAlign=top;align=center;outlineConnect=0;shape=mxgraph.veeam.cpu;fontFamily=Courier New;fontSize=15;fontColor=#4D4D4D;fontStyle=1" parent="1" vertex="1">
          <mxGeometry x="-386.65999999999997" y="693.2" width="44.8" height="44.8" as="geometry" />
        </mxCell>
        <mxCell id="zVDJotKHEmB8gCbMWUN--7" value="AMD64&lt;br&gt;(x86_64)" style="pointerEvents=1;shadow=0;dashed=0;html=1;strokeColor=none;fillColor=#4D4D4D;labelPosition=center;verticalLabelPosition=bottom;verticalAlign=top;align=center;outlineConnect=0;shape=mxgraph.veeam.cpu;fontFamily=Courier New;fontSize=15;fontColor=#4D4D4D;fontStyle=1" parent="1" vertex="1">
          <mxGeometry x="-302.78999999999996" y="693.2" width="44.8" height="44.8" as="geometry" />
        </mxCell>
        <mxCell id="dK9k6cnuPx4-5G9yGXYG-69" value="" style="sketch=0;html=1;aspect=fixed;strokeColor=none;shadow=0;align=center;verticalAlign=top;fillColor=#2D9C5E;shape=mxgraph.gcp2.check;dashed=1;fontFamily=Courier New;fontSize=15;fontColor=#333333;" parent="1" vertex="1">
          <mxGeometry x="-236.66" y="760" width="50" height="40" as="geometry" />
        </mxCell>
        <mxCell id="zVDJotKHEmB8gCbMWUN--10" style="edgeStyle=orthogonalEdgeStyle;curved=1;rounded=0;orthogonalLoop=1;jettySize=auto;html=1;entryX=0;entryY=0.5;entryDx=0;entryDy=0;fontFamily=Courier New;fontSize=15;fontColor=#4D4D4D;endArrow=none;endFill=0;strokeColor=#333333;strokeWidth=3;" parent="1" source="zVDJotKHEmB8gCbMWUN--9" target="dK9k6cnuPx4-5G9yGXYG-65" edge="1">
          <mxGeometry relative="1" as="geometry" />
        </mxCell>
        <mxCell id="zVDJotKHEmB8gCbMWUN--9" value="" style="sketch=0;pointerEvents=1;shadow=0;dashed=0;html=1;strokeColor=none;fillColor=#333333;labelPosition=center;verticalLabelPosition=bottom;verticalAlign=top;outlineConnect=0;align=center;shape=mxgraph.office.users.user;fontFamily=Courier New;fontSize=15;fontColor=#4D4D4D;" parent="1" vertex="1">
          <mxGeometry x="-510" y="345" width="46" height="50" as="geometry" />
        </mxCell>
        <mxCell id="dK9k6cnuPx4-5G9yGXYG-59" style="edgeStyle=orthogonalEdgeStyle;rounded=0;orthogonalLoop=1;jettySize=auto;html=1;exitX=0.5;exitY=1;exitDx=0;exitDy=0;entryX=0.5;entryY=0;entryDx=0;entryDy=0;curved=1;strokeWidth=3;fillColor=#dae8fc;strokeColor=#6c8ebf;" parent="1" source="dK9k6cnuPx4-5G9yGXYG-27" target="dK9k6cnuPx4-5G9yGXYG-11" edge="1">
          <mxGeometry relative="1" as="geometry" />
        </mxCell>
        <mxCell id="dK9k6cnuPx4-5G9yGXYG-60" style="edgeStyle=orthogonalEdgeStyle;curved=1;rounded=0;orthogonalLoop=1;jettySize=auto;html=1;exitX=0.5;exitY=1;exitDx=0;exitDy=0;entryX=0.5;entryY=0;entryDx=0;entryDy=0;strokeWidth=3;fillColor=#dae8fc;strokeColor=#6c8ebf;" parent="1" source="dK9k6cnuPx4-5G9yGXYG-33" target="dK9k6cnuPx4-5G9yGXYG-13" edge="1">
          <mxGeometry relative="1" as="geometry" />
        </mxCell>
        <mxCell id="dK9k6cnuPx4-5G9yGXYG-62" style="edgeStyle=orthogonalEdgeStyle;curved=1;rounded=0;orthogonalLoop=1;jettySize=auto;html=1;exitX=0.5;exitY=1;exitDx=0;exitDy=0;entryX=0.5;entryY=0;entryDx=0;entryDy=0;strokeWidth=3;fillColor=#dae8fc;strokeColor=#6c8ebf;" parent="1" source="dK9k6cnuPx4-5G9yGXYG-57" target="dK9k6cnuPx4-5G9yGXYG-14" edge="1">
          <mxGeometry relative="1" as="geometry" />
        </mxCell>
        <mxCell id="5lNefhlUF8C-h1q1QHB9-2" value="" style="shape=image;verticalLabelPosition=bottom;labelBackgroundColor=default;verticalAlign=top;aspect=fixed;imageAspect=0;image=https://logodownload.org/wp-content/uploads/2019/10/python-logo-4.png;" parent="1" vertex="1">
          <mxGeometry x="-390" y="250" width="80.9" height="90" as="geometry" />
        </mxCell>
      </root>
    </mxGraphModel>
  </diagram>
  <diagram name="structure (dark)" id="uZru81NspkORUE9v53Il">
    <mxGraphModel dx="2864" dy="754" grid="1" gridSize="10" guides="1" tooltips="1" connect="1" arrows="1" fold="1" page="1" pageScale="1" pageWidth="827" pageHeight="1169" math="0" shadow="0">
      <root>
        <mxCell id="ATyW7iLf7C0kiq9-pqL2-0" />
        <mxCell id="ATyW7iLf7C0kiq9-pqL2-1" parent="ATyW7iLf7C0kiq9-pqL2-0" />
        <mxCell id="ATyW7iLf7C0kiq9-pqL2-2" value="" style="rounded=1;whiteSpace=wrap;html=1;arcSize=2;fillColor=#1F1F1F;strokeColor=none;" vertex="1" parent="ATyW7iLf7C0kiq9-pqL2-1">
          <mxGeometry x="-530" y="170" width="1220" height="680" as="geometry" />
        </mxCell>
        <mxCell id="ATyW7iLf7C0kiq9-pqL2-3" value="" style="rounded=1;whiteSpace=wrap;html=1;arcSize=3;dashed=1;strokeWidth=2;fillColor=none;strokeColor=#049cec;" vertex="1" parent="ATyW7iLf7C0kiq9-pqL2-1">
          <mxGeometry x="-100" y="220" width="750" height="595" as="geometry" />
        </mxCell>
        <mxCell id="ATyW7iLf7C0kiq9-pqL2-4" value="" style="shape=image;verticalLabelPosition=bottom;labelBackgroundColor=default;verticalAlign=top;aspect=fixed;imageAspect=0;image=https://www.docker.com/wp-content/uploads/2022/03/vertical-logo-monochromatic.png;" vertex="1" parent="ATyW7iLf7C0kiq9-pqL2-1">
          <mxGeometry x="555" y="230" width="82.58" height="70.68" as="geometry" />
        </mxCell>
        <mxCell id="ATyW7iLf7C0kiq9-pqL2-5" style="edgeStyle=orthogonalEdgeStyle;curved=1;rounded=0;orthogonalLoop=1;jettySize=auto;html=1;entryX=0;entryY=0.5;entryDx=0;entryDy=0;exitX=1;exitY=0.5;exitDx=0;exitDy=0;fontColor=#333333;strokeColor=#538A80;strokeWidth=3;" edge="1" parent="ATyW7iLf7C0kiq9-pqL2-1" source="ATyW7iLf7C0kiq9-pqL2-28" target="ATyW7iLf7C0kiq9-pqL2-3">
          <mxGeometry relative="1" as="geometry">
            <mxPoint x="-195.66499999999996" y="431.25" as="sourcePoint" />
            <Array as="points">
              <mxPoint x="-145" y="370" />
              <mxPoint x="-145" y="518" />
            </Array>
          </mxGeometry>
        </mxCell>
        <mxCell id="ATyW7iLf7C0kiq9-pqL2-6" value="Container &quot;HTB&quot;" style="swimlane;fillColor=#82B366;strokeColor=#82b366;fontColor=#FFFFFF;strokeWidth=2;fontSize=14;" vertex="1" parent="ATyW7iLf7C0kiq9-pqL2-1">
          <mxGeometry x="-70" y="590" width="167.5" height="120" as="geometry" />
        </mxCell>
        <mxCell id="ATyW7iLf7C0kiq9-pqL2-7" value="Graphical support&lt;br&gt;&lt;br&gt;&lt;b&gt;Dedicated network w/ VPN&lt;br&gt;&lt;/b&gt;&lt;br&gt;Dedicated workspace" style="text;html=1;align=center;verticalAlign=middle;resizable=0;points=[];autosize=1;strokeColor=none;fillColor=none;fontColor=#DBDBDB;" vertex="1" parent="ATyW7iLf7C0kiq9-pqL2-6">
          <mxGeometry x="-2.5" y="30" width="170" height="80" as="geometry" />
        </mxCell>
        <mxCell id="ATyW7iLf7C0kiq9-pqL2-8" value="Container &quot;Client ABC&quot;" style="swimlane;fillColor=#D79B00;strokeColor=#d79b00;fontColor=#FFFFFF;strokeWidth=2;fontSize=14;" vertex="1" parent="ATyW7iLf7C0kiq9-pqL2-1">
          <mxGeometry x="172.5" y="595" width="165" height="180" as="geometry" />
        </mxCell>
        <mxCell id="ATyW7iLf7C0kiq9-pqL2-9" value="&lt;b&gt;Host network&lt;br&gt;&lt;/b&gt;&lt;br&gt;&lt;b&gt;Shell logging&lt;br&gt;&lt;/b&gt;&lt;br&gt;Graphical support&lt;br&gt;&lt;br&gt;Custom workspace&lt;br&gt;&lt;br&gt;Exegol resources" style="text;html=1;align=center;verticalAlign=middle;resizable=0;points=[];autosize=1;strokeColor=none;fillColor=none;fontColor=#DBDBDB;" vertex="1" parent="ATyW7iLf7C0kiq9-pqL2-8">
          <mxGeometry x="22.5" y="35" width="120" height="130" as="geometry" />
        </mxCell>
        <mxCell id="ATyW7iLf7C0kiq9-pqL2-10" value="Container &quot;Client XYZ&quot;" style="swimlane;fillColor=#B85450;strokeColor=#b85450;fontColor=#FFFFFF;strokeWidth=2;fontSize=14;" vertex="1" parent="ATyW7iLf7C0kiq9-pqL2-1">
          <mxGeometry x="430" y="585" width="165" height="200" as="geometry">
            <mxRectangle x="430" y="585" width="160" height="23" as="alternateBounds" />
          </mxGeometry>
        </mxCell>
        <mxCell id="ATyW7iLf7C0kiq9-pqL2-11" value="Host network w/ VPN&lt;br&gt;&lt;br&gt;Shell logging&lt;br&gt;&lt;br&gt;Graphical support&lt;br&gt;&lt;br&gt;&lt;b&gt;Device sharing&lt;br&gt;&lt;br&gt;Custom workspace&lt;/b&gt;&lt;br&gt;&lt;br&gt;Custom configs &amp;amp; tools" style="text;html=1;align=center;verticalAlign=middle;resizable=0;points=[];autosize=1;strokeColor=none;fillColor=none;fontColor=#DBDBDB;" vertex="1" parent="ATyW7iLf7C0kiq9-pqL2-10">
          <mxGeometry x="12.5" y="30" width="140" height="160" as="geometry" />
        </mxCell>
        <mxCell id="ATyW7iLf7C0kiq9-pqL2-12" value="WEB" style="swimlane;fillColor=#6C8EBF;strokeColor=#6C8EBF;fontColor=#FFFFFF;strokeWidth=2;" vertex="1" parent="ATyW7iLf7C0kiq9-pqL2-1">
          <mxGeometry y="330" width="120" height="200" as="geometry" />
        </mxCell>
        <mxCell id="ATyW7iLf7C0kiq9-pqL2-13" value="burp&lt;br&gt;ffuf&lt;br&gt;wordlists&lt;br&gt;gobuster&lt;br&gt;amass&lt;br&gt;wfuzz&lt;br&gt;sqlmap&lt;br&gt;ssrfmap&lt;br&gt;xsstrike&lt;br&gt;fuxploider&lt;br&gt;..." style="text;html=1;align=center;verticalAlign=middle;resizable=0;points=[];autosize=1;strokeColor=none;fillColor=none;fontColor=#6C8EBF;fontStyle=2" vertex="1" parent="ATyW7iLf7C0kiq9-pqL2-12">
          <mxGeometry x="25" y="35" width="70" height="160" as="geometry" />
        </mxCell>
        <mxCell id="ATyW7iLf7C0kiq9-pqL2-14" value="OSINT" style="swimlane;fillColor=#6C8EBF;strokeColor=#6C8EBF;fontColor=#FFFFFF;strokeWidth=2;" vertex="1" parent="ATyW7iLf7C0kiq9-pqL2-1">
          <mxGeometry x="130" y="330" width="120" height="200" as="geometry" />
        </mxCell>
        <mxCell id="ATyW7iLf7C0kiq9-pqL2-15" value="maltego&lt;br&gt;holehe&lt;br&gt;maigret&lt;br&gt;h8mail&lt;br&gt;ghunt&lt;br&gt;phoneinfoga&lt;br&gt;infoga&lt;br&gt;toutatis&lt;br&gt;carbon14&lt;br&gt;spiderfoot&lt;br&gt;..." style="text;html=1;align=center;verticalAlign=middle;resizable=0;points=[];autosize=1;strokeColor=none;fillColor=none;fontColor=#6C8EBF;fontStyle=2" vertex="1" parent="ATyW7iLf7C0kiq9-pqL2-14">
          <mxGeometry x="19.310000000000002" y="35" width="80" height="160" as="geometry" />
        </mxCell>
        <mxCell id="ATyW7iLf7C0kiq9-pqL2-16" value="AD" style="swimlane;fillColor=#6C8EBF;strokeColor=#6C8EBF;fontColor=#FFFFFF;strokeWidth=2;" vertex="1" parent="ATyW7iLf7C0kiq9-pqL2-1">
          <mxGeometry x="260" y="330" width="120" height="200" as="geometry" />
        </mxCell>
        <mxCell id="ATyW7iLf7C0kiq9-pqL2-17" value="Impacket&lt;br&gt;CrackMapExec&lt;br&gt;BloodHound&lt;br&gt;lsassy&lt;br&gt;evil-winrm&lt;br&gt;DonPAPI&lt;br&gt;enum4linux-ng&lt;br&gt;coercer&lt;br&gt;pywhisker&lt;br&gt;certipy&lt;br&gt;..." style="text;html=1;align=center;verticalAlign=middle;resizable=0;points=[];autosize=1;strokeColor=none;fillColor=none;fontColor=#6C8EBF;fontStyle=2" vertex="1" parent="ATyW7iLf7C0kiq9-pqL2-16">
          <mxGeometry x="10" y="35" width="100" height="160" as="geometry" />
        </mxCell>
        <mxCell id="ATyW7iLf7C0kiq9-pqL2-18" value="Exegol images" style="swimlane;fillColor=#678CC4;strokeColor=#678CC4;fontColor=#FFFFFF;strokeWidth=2;fontSize=14;" vertex="1" parent="ATyW7iLf7C0kiq9-pqL2-1">
          <mxGeometry x="-10" y="250" width="530" height="290" as="geometry" />
        </mxCell>
        <mxCell id="ATyW7iLf7C0kiq9-pqL2-19" value="pre-installed tools&lt;span style=&quot;white-space: pre; font-size: 13px;&quot;&gt;&#x9;&lt;/span&gt;&lt;span style=&quot;white-space: pre; font-size: 13px;&quot;&gt;&#x9;&lt;/span&gt;pre-configured&lt;span style=&quot;white-space: pre; font-size: 13px;&quot;&gt;&#x9;&lt;/span&gt;&lt;span style=&quot;white-space: pre; font-size: 13px;&quot;&gt;&#x9;&lt;/span&gt;&lt;span style=&quot;white-space: pre; font-size: 13px;&quot;&gt;&#x9;&lt;/span&gt;aliases&lt;br style=&quot;font-size: 13px;&quot;&gt;custom configurations&lt;span style=&quot;white-space: pre; font-size: 13px;&quot;&gt;&lt;span style=&quot;white-space: pre; font-size: 13px;&quot;&gt;&#x9;&lt;/span&gt;&lt;span style=&quot;white-space: pre; font-size: 13px;&quot;&gt;&#x9;&lt;/span&gt;&lt;/span&gt;pre-filled history&lt;span style=&quot;white-space: pre; font-size: 13px;&quot;&gt;&#x9;&lt;span style=&quot;white-space: pre; font-size: 13px;&quot;&gt;&#x9;&lt;/span&gt;&lt;/span&gt;powerful shell&lt;br style=&quot;font-size: 13px;&quot;&gt;..." style="text;html=1;align=center;verticalAlign=middle;resizable=0;points=[];autosize=1;strokeColor=none;fillColor=none;fontStyle=1;fontSize=13;fontColor=#E0E0E0;" vertex="1" parent="ATyW7iLf7C0kiq9-pqL2-18">
          <mxGeometry x="55" y="29" width="420" height="50" as="geometry" />
        </mxCell>
        <mxCell id="ATyW7iLf7C0kiq9-pqL2-20" value="LIGHT" style="swimlane;fillColor=#6C8EBF;strokeColor=#6C8EBF;fontColor=#FFFFFF;strokeWidth=2;" vertex="1" parent="ATyW7iLf7C0kiq9-pqL2-1">
          <mxGeometry x="388.63" y="330" width="120" height="60" as="geometry" />
        </mxCell>
        <mxCell id="ATyW7iLf7C0kiq9-pqL2-21" value="lightweight choice" style="text;html=1;align=center;verticalAlign=middle;resizable=0;points=[];autosize=1;strokeColor=none;fillColor=none;fontStyle=2;fontColor=#6C8EBF;" vertex="1" parent="ATyW7iLf7C0kiq9-pqL2-20">
          <mxGeometry x="5" y="30" width="110" height="20" as="geometry" />
        </mxCell>
        <mxCell id="ATyW7iLf7C0kiq9-pqL2-22" value="FULL" style="swimlane;fillColor=#6C8EBF;strokeColor=#6C8EBF;fontColor=#FFFFFF;strokeWidth=2;" vertex="1" parent="ATyW7iLf7C0kiq9-pqL2-1">
          <mxGeometry x="388.63" y="400" width="120" height="60" as="geometry" />
        </mxCell>
        <mxCell id="ATyW7iLf7C0kiq9-pqL2-23" value="all tools" style="text;html=1;align=center;verticalAlign=middle;resizable=0;points=[];autosize=1;strokeColor=none;fillColor=none;fontStyle=2;fontColor=#6C8EBF;" vertex="1" parent="ATyW7iLf7C0kiq9-pqL2-22">
          <mxGeometry x="30" y="30" width="60" height="20" as="geometry" />
        </mxCell>
        <mxCell id="ATyW7iLf7C0kiq9-pqL2-24" value="NIGHTLY" style="swimlane;fillColor=#6C8EBF;strokeColor=#6C8EBF;fontColor=#FFFFFF;strokeWidth=2;" vertex="1" parent="ATyW7iLf7C0kiq9-pqL2-1">
          <mxGeometry x="388.63" y="470" width="120" height="60" as="geometry" />
        </mxCell>
        <mxCell id="ATyW7iLf7C0kiq9-pqL2-25" value="bleeding edge" style="text;html=1;align=center;verticalAlign=middle;resizable=0;points=[];autosize=1;strokeColor=none;fillColor=none;fontStyle=2;fontColor=#6C8EBF;" vertex="1" parent="ATyW7iLf7C0kiq9-pqL2-24">
          <mxGeometry x="15" y="30" width="90" height="20" as="geometry" />
        </mxCell>
        <mxCell id="ATyW7iLf7C0kiq9-pqL2-26" style="edgeStyle=orthogonalEdgeStyle;curved=1;rounded=0;orthogonalLoop=1;jettySize=auto;html=1;exitX=1;exitY=0.5;exitDx=0;exitDy=0;entryX=0;entryY=0.5;entryDx=0;entryDy=0;fontFamily=Courier New;fontSize=15;fontColor=#333333;strokeColor=#538A80;strokeWidth=3;endArrow=none;endFill=0;" edge="1" parent="ATyW7iLf7C0kiq9-pqL2-1" source="ATyW7iLf7C0kiq9-pqL2-27" target="ATyW7iLf7C0kiq9-pqL2-28">
          <mxGeometry relative="1" as="geometry" />
        </mxCell>
        <mxCell id="ATyW7iLf7C0kiq9-pqL2-27" value="exegol.py" style="rounded=1;whiteSpace=wrap;html=1;fontSize=17;fillColor=#538A80;fontColor=#FFFFFF;fontStyle=1;fontFamily=Courier New;strokeColor=none;" vertex="1" parent="ATyW7iLf7C0kiq9-pqL2-1">
          <mxGeometry x="-430.65999999999997" y="350" width="110" height="40" as="geometry" />
        </mxCell>
        <mxCell id="ATyW7iLf7C0kiq9-pqL2-28" value="install&lt;br style=&quot;font-size: 15px;&quot;&gt;start&lt;br style=&quot;font-size: 15px;&quot;&gt;info&lt;br style=&quot;font-size: 15px;&quot;&gt;..." style="rounded=1;whiteSpace=wrap;html=1;fontSize=15;fillColor=#538A80;fontColor=#FFFFFF;fontStyle=1;fontFamily=Courier New;strokeColor=none;" vertex="1" parent="ATyW7iLf7C0kiq9-pqL2-1">
          <mxGeometry x="-300" y="325" width="110" height="90" as="geometry" />
        </mxCell>
        <mxCell id="ATyW7iLf7C0kiq9-pqL2-29" value="" style="rounded=1;whiteSpace=wrap;html=1;dashed=1;fontFamily=Courier New;fontSize=15;strokeColor=#B9E0A5;strokeWidth=2;fillColor=none;arcSize=10;" vertex="1" parent="ATyW7iLf7C0kiq9-pqL2-1">
          <mxGeometry x="-430.65999999999997" y="610" width="220" height="180" as="geometry" />
        </mxCell>
        <mxCell id="ATyW7iLf7C0kiq9-pqL2-30" value="" style="shape=image;verticalLabelPosition=bottom;labelBackgroundColor=default;verticalAlign=top;aspect=fixed;imageAspect=0;image=https://www.redhat.com/cms/managed-files/tux-327x360.png;" vertex="1" parent="ATyW7iLf7C0kiq9-pqL2-1">
          <mxGeometry x="-408.65999999999997" y="619.3199999999999" width="43.38" height="53.75" as="geometry" />
        </mxCell>
        <mxCell id="ATyW7iLf7C0kiq9-pqL2-31" value="" style="shape=image;verticalLabelPosition=bottom;labelBackgroundColor=default;verticalAlign=top;aspect=fixed;imageAspect=0;image=https://upload.wikimedia.org/wikipedia/commons/thumb/4/48/Windows_logo_-_2012_%28dark_blue%29.svg/2048px-Windows_logo_-_2012_%28dark_blue%29.svg.png;" vertex="1" parent="ATyW7iLf7C0kiq9-pqL2-1">
          <mxGeometry x="-269.65999999999997" y="622.2900000000001" width="47.81" height="47.81" as="geometry" />
        </mxCell>
        <mxCell id="ATyW7iLf7C0kiq9-pqL2-32" value="" style="shape=image;verticalLabelPosition=bottom;labelBackgroundColor=default;verticalAlign=top;aspect=fixed;imageAspect=0;image=https://upload.wikimedia.org/wikipedia/commons/thumb/2/22/MacOS_logo_%282017%29.svg/2060px-MacOS_logo_%282017%29.svg.png;" vertex="1" parent="ATyW7iLf7C0kiq9-pqL2-1">
          <mxGeometry x="-352.90999999999997" y="614.19" width="64.49" height="64" as="geometry" />
        </mxCell>
        <mxCell id="ATyW7iLf7C0kiq9-pqL2-33" value="ARM64&lt;br&gt;(aarch64)" style="pointerEvents=1;shadow=0;dashed=0;html=1;strokeColor=none;fillColor=#E0E0E0;labelPosition=center;verticalLabelPosition=bottom;verticalAlign=top;align=center;outlineConnect=0;shape=mxgraph.veeam.cpu;fontFamily=Courier New;fontSize=15;fontColor=#C2C2C2;fontStyle=1" vertex="1" parent="ATyW7iLf7C0kiq9-pqL2-1">
          <mxGeometry x="-386.65999999999997" y="693.2" width="44.8" height="44.8" as="geometry" />
        </mxCell>
        <mxCell id="ATyW7iLf7C0kiq9-pqL2-34" value="AMD64&lt;br&gt;(x86_64)" style="pointerEvents=1;shadow=0;dashed=0;html=1;strokeColor=none;fillColor=#E0E0E0;labelPosition=center;verticalLabelPosition=bottom;verticalAlign=top;align=center;outlineConnect=0;shape=mxgraph.veeam.cpu;fontFamily=Courier New;fontSize=15;fontColor=#C2C2C2;fontStyle=1" vertex="1" parent="ATyW7iLf7C0kiq9-pqL2-1">
          <mxGeometry x="-302.78999999999996" y="693.2" width="44.8" height="44.8" as="geometry" />
        </mxCell>
        <mxCell id="ATyW7iLf7C0kiq9-pqL2-35" value="" style="sketch=0;html=1;aspect=fixed;strokeColor=none;shadow=0;align=center;verticalAlign=top;fillColor=#2D9C5E;shape=mxgraph.gcp2.check;dashed=1;fontFamily=Courier New;fontSize=15;fontColor=#333333;" vertex="1" parent="ATyW7iLf7C0kiq9-pqL2-1">
          <mxGeometry x="-236.66" y="760" width="50" height="40" as="geometry" />
        </mxCell>
        <mxCell id="ATyW7iLf7C0kiq9-pqL2-36" style="edgeStyle=orthogonalEdgeStyle;curved=1;rounded=0;orthogonalLoop=1;jettySize=auto;html=1;entryX=0;entryY=0.5;entryDx=0;entryDy=0;fontFamily=Courier New;fontSize=15;fontColor=#4D4D4D;endArrow=none;endFill=0;strokeColor=#538A80;strokeWidth=3;" edge="1" parent="ATyW7iLf7C0kiq9-pqL2-1" source="ATyW7iLf7C0kiq9-pqL2-37" target="ATyW7iLf7C0kiq9-pqL2-27">
          <mxGeometry relative="1" as="geometry" />
        </mxCell>
        <mxCell id="ATyW7iLf7C0kiq9-pqL2-37" value="" style="sketch=0;pointerEvents=1;shadow=0;dashed=0;html=1;strokeColor=none;fillColor=#538A80;labelPosition=center;verticalLabelPosition=bottom;verticalAlign=top;outlineConnect=0;align=center;shape=mxgraph.office.users.user;fontFamily=Courier New;fontSize=15;fontColor=#FFFFFF;" vertex="1" parent="ATyW7iLf7C0kiq9-pqL2-1">
          <mxGeometry x="-510" y="345" width="46" height="50" as="geometry" />
        </mxCell>
        <mxCell id="ATyW7iLf7C0kiq9-pqL2-38" style="edgeStyle=orthogonalEdgeStyle;rounded=0;orthogonalLoop=1;jettySize=auto;html=1;exitX=0.5;exitY=1;exitDx=0;exitDy=0;entryX=0.5;entryY=0;entryDx=0;entryDy=0;curved=1;strokeWidth=3;fillColor=#dae8fc;strokeColor=#6c8ebf;" edge="1" parent="ATyW7iLf7C0kiq9-pqL2-1" source="ATyW7iLf7C0kiq9-pqL2-12" target="ATyW7iLf7C0kiq9-pqL2-6">
          <mxGeometry relative="1" as="geometry" />
        </mxCell>
        <mxCell id="ATyW7iLf7C0kiq9-pqL2-39" style="edgeStyle=orthogonalEdgeStyle;curved=1;rounded=0;orthogonalLoop=1;jettySize=auto;html=1;exitX=0.5;exitY=1;exitDx=0;exitDy=0;entryX=0.5;entryY=0;entryDx=0;entryDy=0;strokeWidth=3;fillColor=#dae8fc;strokeColor=#6c8ebf;" edge="1" parent="ATyW7iLf7C0kiq9-pqL2-1" source="ATyW7iLf7C0kiq9-pqL2-16" target="ATyW7iLf7C0kiq9-pqL2-8">
          <mxGeometry relative="1" as="geometry" />
        </mxCell>
        <mxCell id="ATyW7iLf7C0kiq9-pqL2-40" style="edgeStyle=orthogonalEdgeStyle;curved=1;rounded=0;orthogonalLoop=1;jettySize=auto;html=1;exitX=0.5;exitY=1;exitDx=0;exitDy=0;entryX=0.5;entryY=0;entryDx=0;entryDy=0;strokeWidth=3;fillColor=#dae8fc;strokeColor=#6c8ebf;" edge="1" parent="ATyW7iLf7C0kiq9-pqL2-1" source="ATyW7iLf7C0kiq9-pqL2-24" target="ATyW7iLf7C0kiq9-pqL2-10">
          <mxGeometry relative="1" as="geometry" />
        </mxCell>
        <mxCell id="ATyW7iLf7C0kiq9-pqL2-41" value="" style="shape=image;verticalLabelPosition=bottom;labelBackgroundColor=default;verticalAlign=top;aspect=fixed;imageAspect=0;image=https://logodownload.org/wp-content/uploads/2019/10/python-logo-4.png;clipPath=inset(0% 19.63% 39% 12.22%);" vertex="1" parent="ATyW7iLf7C0kiq9-pqL2-1">
          <mxGeometry x="-405.82" y="265" width="60.33" height="60" as="geometry" />
        </mxCell>
      </root>
    </mxGraphModel>
  </diagram>
</mxfile>
